<?xml version="1.0" encoding="UTF-8"?>
<svg xmlns="http://www.w3.org/2000/svg" xmlns:xlink="http://www.w3.org/1999/xlink" width="375pt" height="374.999991pt" viewBox="0 0 375 374.999991" version="1.2">
<defs>
<clipPath id="clip1">
  <path d="M 150 155.765625 L 225 155.765625 L 225 219.515625 L 150 219.515625 Z M 150 155.765625 "/>
</clipPath>
</defs>
<g id="surface1">
<g clip-path="url(#clip1)" clip-rule="nonzero">
<path style=" stroke:none;fill-rule:nonzero;fill:rgb(11.369324%,11.369324%,10.5896%);fill-opacity:1;" d="M 199.699219 167.195312 L 188.4375 157.113281 C 188.472656 157.011719 188.492188 156.902344 188.492188 156.789062 C 188.492188 156.207031 188.023438 155.738281 187.445312 155.738281 C 186.871094 155.738281 186.40625 156.207031 186.40625 156.789062 C 186.40625 156.902344 186.421875 157.011719 186.457031 157.113281 L 175.195312 167.195312 L 150.039062 167.195312 L 150.039062 219.722656 L 224.855469 219.722656 L 224.855469 167.195312 Z M 186.8125 157.621094 C 186.988281 157.757812 187.207031 157.84375 187.445312 157.84375 C 187.6875 157.84375 187.90625 157.757812 188.082031 157.621094 L 198.777344 167.195312 L 176.117188 167.195312 Z M 222.640625 217.488281 L 152.253906 217.488281 L 152.253906 169.425781 L 222.640625 169.425781 Z M 222.640625 217.488281 "/>
</g>
</g>
</svg>
