<?xml version="1.0" encoding="UTF-8"?>
<svg xmlns="http://www.w3.org/2000/svg" xmlns:xlink="http://www.w3.org/1999/xlink" width="375pt" height="374.999991pt" viewBox="0 0 375 374.999991" version="1.2">
<defs>
<clipPath id="clip1">
  <path d="M 150 155.765625 L 225 155.765625 L 225 219.515625 L 150 219.515625 Z M 150 155.765625 "/>
</clipPath>
</defs>
<g id="surface1">
<g clip-path="url(#clip1)" clip-rule="nonzero">
<path style=" stroke:none;fill-rule:nonzero;fill:rgb(100%,81.17981%,4.309082%);fill-opacity:1;" d="M 199.699219 167.144531 L 188.4375 157.109375 C 188.472656 157.007812 188.492188 156.898438 188.492188 156.785156 C 188.492188 156.207031 188.023438 155.738281 187.445312 155.738281 C 186.871094 155.738281 186.40625 156.207031 186.40625 156.785156 C 186.40625 156.898438 186.421875 157.007812 186.457031 157.109375 L 175.195312 167.144531 L 150.039062 167.144531 L 150.039062 219.441406 L 224.855469 219.441406 L 224.855469 167.144531 Z M 186.8125 157.613281 C 186.988281 157.75 187.207031 157.832031 187.445312 157.832031 C 187.6875 157.832031 187.90625 157.75 188.082031 157.613281 L 198.777344 167.144531 L 176.117188 167.144531 Z M 222.640625 217.214844 L 152.253906 217.214844 L 152.253906 169.367188 L 222.640625 169.367188 Z M 222.640625 217.214844 "/>
</g>
</g>
</svg>
